<?xml version="1.0" standalone="no"?>
<!DOCTYPE svg PUBLIC "-//W3C//DTD SVG 20010904//EN"
 "http://www.w3.org/TR/2001/REC-SVG-20010904/DTD/svg10.dtd">
<svg version="1.0" xmlns="http://www.w3.org/2000/svg"
 width="640.000000pt" height="640.000000pt" viewBox="0 0 640.000000 640.000000"
 preserveAspectRatio="xMidYMid meet">

<g transform="translate(0.000000,640.000000) scale(0.100000,-0.100000)"
fill="#000000" stroke="none">
<path d="M4370 6390 c0 -5 -9 -10 -19 -10 -11 0 -22 -4 -26 -10 -3 -5 -20 -14
-38 -19 -63 -19 -194 -67 -264 -97 -17 -8 -37 -14 -45 -14 -8 0 -18 -4 -24 -9
-5 -4 -34 -16 -64 -27 -30 -10 -59 -22 -64 -26 -6 -4 -19 -8 -31 -8 -11 0 -29
-6 -40 -13 -11 -7 -47 -22 -80 -32 -33 -11 -64 -23 -69 -27 -6 -4 -18 -8 -28
-8 -16 0 -66 -19 -110 -41 -10 -5 -26 -9 -35 -9 -10 0 -29 -6 -43 -13 -14 -7
-52 -21 -85 -31 -33 -10 -64 -22 -70 -26 -5 -4 -21 -10 -35 -13 -14 -3 -41
-11 -60 -17 -73 -27 -89 -32 -235 -75 -33 -10 -68 -21 -77 -26 -9 -5 -36 -12
-60 -15 -24 -4 -47 -10 -53 -14 -5 -4 -26 -10 -45 -13 -19 -3 -57 -10 -85 -16
-27 -5 -98 -10 -156 -10 -98 -1 -107 -3 -128 -25 -19 -20 -20 -27 -10 -49 9
-21 128 -117 144 -117 2 0 29 -16 60 -35 30 -20 63 -39 73 -42 9 -4 35 -18 57
-32 22 -14 81 -46 130 -72 223 -115 354 -189 355 -201 0 -3 -16 -28 -36 -53
-39 -52 -114 -171 -114 -183 0 -3 -11 -29 -24 -57 -33 -68 -56 -136 -56 -163
0 -12 -4 -22 -8 -22 -8 0 -36 -226 -36 -290 0 -19 6 -89 13 -155 14 -122 27
-155 61 -155 22 0 70 24 95 48 11 10 35 27 53 37 17 11 32 23 32 27 0 4 7 8
15 8 19 0 19 -27 0 -105 -17 -70 -19 -163 -5 -255 6 -36 13 -87 16 -115 3 -27
9 -59 14 -70 5 -11 16 -47 25 -80 9 -33 23 -73 31 -88 8 -16 14 -35 14 -43 0
-14 41 -110 61 -144 9 -15 15 -27 38 -80 6 -14 21 -41 32 -60 12 -19 29 -48
38 -65 19 -34 73 -118 81 -125 15 -13 90 -141 90 -153 0 -7 5 -18 10 -23 6 -6
13 -24 15 -40 6 -34 21 -91 41 -154 8 -25 14 -55 14 -68 0 -12 4 -30 9 -40 14
-26 41 -118 41 -141 0 -11 4 -22 9 -26 5 -3 12 -20 16 -38 9 -42 25 -95 42
-134 7 -17 13 -40 13 -51 0 -12 5 -24 10 -27 6 -3 10 -14 10 -23 0 -9 7 -30
15 -46 8 -15 15 -38 15 -50 0 -11 7 -30 15 -40 8 -11 15 -30 15 -43 0 -13 5
-23 10 -23 6 0 10 -9 10 -19 0 -11 6 -32 14 -48 8 -15 26 -55 41 -88 84 -186
134 -260 235 -348 37 -32 78 -68 91 -80 32 -29 165 -127 172 -127 3 0 25 -13
49 -28 72 -48 273 -147 321 -158 15 -3 27 -10 27 -15 0 -5 18 -12 40 -15 22
-4 43 -11 46 -15 3 -5 15 -9 28 -9 12 0 26 -4 32 -10 5 -5 30 -14 54 -19 25
-5 72 -17 105 -26 33 -10 83 -21 110 -25 28 -5 68 -13 90 -18 44 -11 164 -28
267 -38 80 -7 97 -21 81 -67 -6 -18 -14 -48 -18 -67 -10 -54 -28 -103 -44
-122 -12 -15 -31 -18 -116 -18 -62 0 -121 -6 -151 -15 -27 -8 -61 -15 -76 -15
-16 0 -28 -4 -28 -10 0 -5 -6 -10 -13 -10 -8 0 -33 -14 -55 -30 -23 -17 -46
-30 -51 -30 -5 0 -11 -4 -13 -8 -1 -5 -43 -35 -93 -67 -49 -33 -91 -63 -93
-67 -2 -4 -10 -8 -17 -8 -8 0 -20 -6 -27 -13 -22 -21 -114 -77 -126 -77 -7 0
-12 -4 -12 -8 0 -5 -17 -17 -37 -28 -21 -10 -40 -22 -43 -25 -3 -3 -40 -27
-82 -53 -43 -26 -78 -52 -78 -57 0 -14 108 -11 113 4 4 9 7 9 18 -1 10 -9 204
-12 901 -12 l888 0 0 238 -1 237 -82 -87 c-100 -106 -135 -120 -296 -122 -158
-2 -186 10 -298 120 l-93 92 24 53 c14 30 30 77 36 104 7 28 17 70 24 95 l12
45 285 3 286 2 11 -25 c7 -14 12 -38 13 -53 1 -40 52 -185 67 -190 14 -4 18
148 3 163 -5 6 -11 31 -14 58 -3 36 -1 47 9 47 9 0 14 11 14 30 l0 30 -342 0
c-194 0 -360 5 -383 10 -22 6 -87 15 -145 20 -58 6 -141 17 -185 26 -44 8 -96
17 -115 20 -19 3 -57 11 -85 19 -27 7 -70 19 -95 26 -364 96 -697 286 -933
534 -44 46 -73 93 -127 201 -39 77 -70 144 -70 148 0 4 -6 22 -13 39 -16 38
-32 81 -59 162 -11 33 -24 69 -29 80 -4 11 -16 47 -25 80 -9 33 -20 65 -24 70
-4 6 -11 26 -14 45 -4 19 -11 44 -16 55 -4 11 -18 56 -30 100 -32 118 -67 245
-79 285 -13 43 -14 508 -1 565 5 22 13 58 18 80 6 22 19 59 31 82 11 23 21 48
21 56 0 7 4 17 9 23 4 5 36 62 70 126 33 65 70 132 81 150 11 18 31 53 45 78
82 146 162 274 173 278 18 6 15 -44 -5 -101 -16 -44 -16 -50 -1 -75 9 -15 27
-32 39 -39 32 -17 35 -25 80 -233 16 -77 30 -110 50 -121 11 -5 23 -7 28 -4 5
3 59 67 120 143 60 75 118 142 128 148 12 7 36 8 73 3 101 -16 233 -29 385
-39 83 -5 166 -14 185 -20 19 -5 52 -10 73 -10 30 0 40 4 44 20 3 11 9 20 13
20 11 0 40 81 40 112 0 39 -43 83 -99 102 -27 9 -58 16 -69 16 -11 0 -35 6
-54 14 -19 8 -72 22 -118 31 -47 10 -89 21 -95 26 -5 5 -20 9 -35 9 -55 0 -53
15 12 76 35 32 108 92 163 133 55 41 117 87 137 103 20 15 40 28 43 28 3 0 32
16 63 37 59 38 265 143 280 143 4 0 27 9 50 20 23 11 57 23 74 27 18 3 44 12
58 20 14 7 44 13 68 13 49 0 53 -14 26 -78 -22 -52 -23 -437 -1 -509 8 -26 20
-68 27 -93 18 -63 45 -104 75 -118 36 -17 60 -2 85 55 20 47 94 168 114 189 6
6 25 29 41 50 17 21 74 83 128 138 l97 100 0 933 0 933 -1015 0 c-670 0 -1015
-3 -1015 -10z"/>
<path d="M4738 3095 c-3 -4 -46 -12 -95 -20 -132 -19 -355 -88 -394 -121 -8
-8 -20 -14 -26 -14 -15 0 -105 -50 -130 -73 -22 -20 -32 -67 -15 -67 13 0 121
60 127 71 4 5 13 9 21 9 8 0 37 11 66 25 28 14 57 25 63 25 9 0 32 -27 90
-107 7 -10 5 -18 -10 -28 -38 -27 -45 -36 -45 -55 0 -24 25 -26 72 -6 65 28
196 66 226 66 17 0 57 7 90 15 50 13 75 14 139 5 43 -6 112 -15 153 -20 63 -8
141 -24 210 -41 20 -6 25 38 6 59 -13 15 -13 25 2 90 l17 73 42 -2 c95 -6 72
49 -32 76 -33 9 -86 21 -120 27 -67 12 -447 23 -457 13z m32 -168 c14 -7 25
-19 25 -26 0 -25 -156 -54 -169 -33 -8 13 23 52 48 62 31 13 67 12 96 -3z"/>
<path d="M5955 2773 c-13 -69 -41 -134 -86 -202 -76 -115 -66 -174 40 -225 69
-33 99 -7 41 36 -34 25 -70 80 -70 107 0 10 7 24 15 31 8 7 15 19 15 27 0 8 8
27 18 41 50 72 78 162 61 194 -14 26 -28 22 -34 -9z"/>
<path d="M5721 1441 c-24 -15 -3 -45 61 -88 151 -102 291 -122 483 -69 98 27
129 48 133 85 2 18 0 32 -5 30 -4 -2 -44 -22 -88 -44 -79 -39 -82 -40 -190
-40 -124 0 -156 10 -276 91 -65 44 -92 52 -118 35z"/>
</g>
</svg>
