<?xml version="1.0" standalone="no"?>
<!DOCTYPE svg PUBLIC "-//W3C//DTD SVG 20010904//EN"
 "http://www.w3.org/TR/2001/REC-SVG-20010904/DTD/svg10.dtd">
<svg version="1.0" xmlns="http://www.w3.org/2000/svg"
 width="480.000000pt" height="800.000000pt" viewBox="0 0 480.000000 800.000000"
 preserveAspectRatio="xMidYMid meet">

<g transform="translate(0.000000,800.000000) scale(0.100000,-0.100000)"
fill="#000000" stroke="none">
<path d="M2445 5563 c-89 -8 -303 -56 -408 -92 -62 -21 -204 -73 -317 -116
-405 -152 -570 -205 -670 -213 -119 -11 -102 -33 112 -147 59 -31 110 -61 113
-65 3 -5 -8 -33 -24 -62 -52 -91 -63 -135 -63 -242 0 -113 9 -130 49 -100 52
38 51 39 50 -39 -3 -137 29 -239 119 -384 33 -52 55 -108 85 -210 83 -287 125
-373 219 -448 125 -102 271 -162 447 -186 48 -7 91 -15 95 -19 5 -3 2 -26 -5
-50 l-13 -45 -67 -7 c-62 -6 -76 -12 -214 -100 -81 -52 -169 -107 -195 -122
-26 -15 -50 -35 -53 -44 -5 -15 -236 -181 -286 -206 -13 -6 -26 -2 -45 13 -33
26 -56 27 -79 1 -14 -16 -15 -25 -7 -49 10 -29 9 -31 -29 -53 -52 -29 -79 -73
-79 -130 0 -109 117 -160 234 -102 63 31 95 60 112 99 10 24 42 46 154 108 96
52 146 75 153 68 8 -6 34 6 81 36 37 24 70 42 73 39 3 -3 -6 -49 -20 -103 -48
-186 -61 -285 -61 -483 0 -158 4 -207 27 -330 15 -80 32 -173 38 -207 7 -41
16 -63 25 -63 7 0 16 -10 19 -22 29 -130 51 -249 46 -252 -3 -2 -22 -9 -41
-15 -45 -15 -73 -39 -94 -79 -25 -48 -21 -88 10 -109 59 -38 262 -56 360 -32
61 16 78 43 76 124 0 35 -6 73 -12 85 -8 14 -9 77 -5 208 8 242 11 272 34 272
15 0 19 -18 30 -134 7 -75 11 -214 9 -319 -3 -208 -1 -217 71 -237 86 -24 310
-2 367 35 32 21 32 69 -1 118 -25 36 -88 77 -119 77 -8 0 -18 5 -21 11 -10 15
35 252 49 264 19 15 100 549 97 635 -2 53 -42 280 -77 438 -14 63 -24 116 -21
118 3 3 33 -13 68 -35 35 -23 74 -41 86 -41 12 0 82 -33 155 -73 109 -61 133
-79 139 -102 11 -39 43 -70 100 -94 104 -45 189 -33 230 32 41 65 8 166 -65
201 -32 15 -34 18 -23 46 9 24 8 32 -8 49 -24 28 -56 26 -84 -3 l-23 -25 -137
94 c-75 51 -141 103 -148 116 -7 13 -88 71 -185 131 -200 125 -216 133 -283
145 -49 8 -50 9 -59 51 -5 23 -7 45 -4 48 3 3 50 12 104 20 55 8 131 24 169
35 151 45 322 156 380 248 31 50 107 243 148 376 19 61 41 124 49 140 34 66
81 223 104 345 21 113 20 329 -2 429 -9 42 -33 112 -54 156 -65 140 -155 231
-315 316 -44 24 -86 52 -94 63 -8 12 -39 46 -70 76 -105 105 -269 144 -506
123z m244 -795 c-17 -29 -19 -245 -3 -279 6 -13 16 -36 23 -51 6 -16 18 -28
28 -28 40 1 388 38 421 45 28 7 29 35 2 94 -18 39 -23 43 -48 38 l-28 -6 25
53 c15 30 29 51 33 47 17 -15 129 -242 148 -300 11 -35 32 -117 46 -183 l25
-120 -26 -86 c-116 -384 -169 -480 -314 -576 -114 -75 -232 -117 -403 -141
-313 -45 -654 14 -843 145 -129 90 -182 189 -270 500 -23 83 -26 109 -23 205
3 103 6 115 40 185 21 41 60 113 88 160 47 77 51 81 45 46 -4 -27 -2 -43 8
-55 15 -16 17 -23 37 -98 6 -24 15 -43 20 -43 5 0 30 27 56 61 38 47 52 59 69
55 11 -3 74 -10 140 -16 110 -11 120 -10 132 6 7 10 13 28 13 41 0 27 -11 32
-117 58 -40 10 -73 21 -73 25 0 25 197 156 292 194 93 37 100 36 92 -16 -3
-24 -7 -49 -10 -56 -7 -24 16 -166 31 -189 22 -32 32 -29 56 20 31 59 282 307
297 292 2 -2 -2 -14 -9 -27z m285 -95 c-7 -97 -16 -123 -42 -123 -9 0 -61 -12
-116 -25 -54 -14 -101 -24 -103 -21 -11 11 54 113 98 156 41 39 137 98 162
100 4 0 4 -39 1 -87z m-457 -1495 l19 -56 -26 -31 c-59 -71 -185 -68 -238 6
-20 28 -20 31 -4 84 l16 55 107 0 108 -1 18 -57z m-573 -387 c26 -33 46 -62
46 -65 0 -18 -21 1 -62 57 -56 77 -78 119 -77 149 0 16 7 8 24 -30 13 -28 44
-79 69 -111z m966 125 c-9 -41 -11 -44 -73 -129 -27 -37 -53 -65 -57 -62 -5 3
16 38 46 78 30 39 60 89 66 110 14 46 29 49 18 3z m-1070 -51 c0 -5 25 -43 55
-84 30 -41 52 -77 50 -79 -17 -17 -124 142 -130 194 l-5 39 14 -30 c9 -16 15
-34 16 -40z m1102 7 c-22 -57 -102 -171 -121 -171 -8 -1 -3 12 15 36 57 75 92
133 99 163 4 17 11 28 16 25 5 -3 0 -27 -9 -53z m-1158 -6 c4 -18 25 -59 47
-91 65 -93 72 -105 61 -105 -13 0 -72 80 -100 135 -26 50 -37 95 -24 95 5 0
13 -15 16 -34z m1202 -29 c-18 -49 -110 -180 -119 -171 -3 3 19 42 48 86 30
43 58 91 61 106 9 37 17 49 22 33 2 -7 -3 -31 -12 -54z m-1236 -7 c7 -22 34
-72 61 -112 51 -78 56 -105 8 -48 -32 38 -99 165 -99 186 0 28 17 13 30 -26z
m1266 -43 c-31 -62 -92 -147 -106 -147 -6 0 8 26 30 59 22 32 52 85 67 117 18
39 29 53 31 41 2 -10 -8 -42 -22 -70z m-1296 1 c0 -5 18 -37 40 -72 22 -35 40
-66 40 -68 0 -3 -65 -41 -145 -84 -98 -53 -145 -84 -145 -96 0 -28 -48 -76
-105 -102 -61 -30 -103 -33 -145 -11 -93 48 -76 161 31 216 22 11 39 22 39 25
0 2 -7 16 -17 30 -15 23 -15 27 0 41 16 17 19 16 82 -31 8 -6 59 24 156 91
127 89 146 99 157 85 6 -9 12 -20 12 -24z m1385 4 c22 -15 84 -57 137 -94 53
-38 101 -68 105 -68 5 0 19 11 31 25 25 29 44 32 62 10 10 -12 9 -20 -4 -40
-9 -13 -16 -27 -16 -30 0 -3 20 -14 44 -26 121 -57 111 -205 -15 -225 -74 -12
-209 64 -209 118 0 20 -22 35 -144 101 l-144 79 49 76 c27 42 49 83 49 90 0
18 10 15 55 -16z m-365 -71 c0 -40 -443 -63 -628 -32 -45 7 -85 18 -89 24 -4
7 5 8 27 3 155 -31 456 -32 605 -3 39 8 73 15 78 16 4 0 7 -3 7 -8z m-561 -71
c57 -5 144 -10 195 -10 83 1 282 21 349 36 16 4 27 2 27 -4 0 -11 -8 -13 -120
-33 -150 -27 -606 -6 -617 28 -3 9 5 9 29 3 18 -5 80 -14 137 -20z m-44 -40
c39 -5 144 -9 235 -9 149 0 196 3 350 24 34 5 41 4 28 -5 -9 -6 -68 -18 -130
-26 -181 -26 -618 -5 -618 28 0 7 13 8 33 3 17 -4 64 -11 102 -15z m-50 -42
c96 -20 490 -18 589 5 90 20 96 20 96 8 0 -18 -178 -43 -340 -48 -153 -5 -370
12 -424 33 -22 8 -20 27 2 20 9 -2 44 -10 77 -18z m120 -79 c166 -17 456 1
566 36 15 5 19 1 19 -18 0 -21 -7 -25 -52 -35 -207 -44 -525 -45 -729 -1 -38
8 -49 15 -45 26 3 8 6 18 6 22 0 4 28 2 63 -5 34 -8 112 -19 172 -25z m-122
-85 c186 -31 555 -19 705 22 18 5 22 2 22 -18 0 -22 -6 -26 -62 -36 -138 -25
-277 -34 -443 -29 -146 5 -331 27 -356 42 -13 9 3 46 18 41 8 -3 60 -13 116
-22z m37 -100 c63 -7 182 -14 265 -14 132 1 207 7 398 36 43 6 47 5 47 -14 0
-14 -8 -23 -22 -27 -215 -47 -520 -52 -782 -14 -89 13 -102 19 -92 45 5 13 13
15 39 10 17 -4 84 -14 147 -22z m-16 -99 c193 -26 451 -18 694 21 38 6 42 5
42 -14 0 -25 -7 -27 -140 -46 -222 -31 -448 -29 -685 5 -89 13 -99 18 -89 43
5 14 14 17 38 12 17 -4 80 -13 140 -21z m-4 -100 c203 -26 515 -17 718 21 29
6 32 4 32 -19 0 -30 -8 -33 -110 -46 -208 -27 -599 -22 -762 9 -60 12 -71 20
-62 44 5 14 14 17 38 12 17 -4 83 -13 146 -21z m237 -687 c-4 -46 -7 -107 -7
-135 0 -51 -2 -54 -41 -80 -38 -25 -43 -26 -87 -14 -65 17 -122 56 -122 84 -1
12 -11 68 -24 125 l-23 102 155 0 155 0 -6 -82z m403 70 c0 -12 -33 -185 -45
-236 -6 -25 -91 -72 -130 -72 -23 0 -84 34 -102 58 -9 11 -13 56 -13 139 l0
123 145 0 c109 0 145 -3 145 -12z m-644 -286 c-2 -4 20 -40 50 -80 30 -40 54
-77 54 -83 0 -5 10 -7 23 -5 12 3 39 8 60 11 21 3 46 9 55 11 10 4 6 -5 -11
-20 -27 -25 -34 -26 -135 -26 -122 0 -184 8 -179 23 2 6 39 9 91 8 85 -2 87
-2 69 16 -58 58 -109 153 -82 153 5 0 8 -4 5 -8z m246 -44 c-5 -5 -27 -8 -48
-6 l-38 3 40 26 c38 26 39 26 47 6 4 -11 4 -24 -1 -29z m188 -4 c0 -7 -65 -4
-77 4 -7 4 -10 17 -7 29 l6 22 39 -26 c21 -14 39 -27 39 -29z m144 -37 c-21
-28 -44 -58 -53 -65 -13 -11 -2 -13 72 -10 52 2 89 -1 91 -7 3 -5 5 5 5 23 1
21 10 42 25 57 13 13 21 27 17 31 -3 4 4 2 15 -4 49 -26 31 -89 -31 -111 -23
-8 -97 -16 -171 -19 -108 -3 -136 -1 -162 12 -33 17 -45 43 -14 31 9 -3 29 -8
45 -11 15 -2 41 -6 57 -9 18 -3 30 0 30 7 0 6 23 41 50 78 28 37 51 74 51 81
1 8 4 4 6 -9 3 -15 -8 -40 -33 -75z m-604 69 c0 -2 -7 -6 -15 -10 -8 -3 -15
-1 -15 4 0 6 7 10 15 10 8 0 15 -2 15 -4z m690 -6 c0 -5 -7 -7 -15 -4 -8 4
-15 8 -15 10 0 2 7 4 15 4 8 0 15 -4 15 -10z m-750 -24 c0 -3 -4 -8 -10 -11
-5 -3 -10 -1 -10 4 0 6 5 11 10 11 6 0 10 -2 10 -4z m68 -52 c35 -46 38 -54
20 -54 -16 1 -79 91 -71 103 6 10 6 10 51 -49z m732 45 c0 -6 -7 -9 -15 -6 -9
4 -27 -11 -50 -43 -20 -28 -43 -50 -51 -50 -18 0 49 92 74 102 26 10 42 9 42
-3z m-826 -36 c18 -18 26 -35 24 -52 -4 -34 -29 -37 -63 -8 -23 19 -26 28 -20
55 8 39 24 40 59 5z"/>
<path d="M1835 4106 c-67 -16 -170 -59 -180 -76 -14 -22 4 -21 55 5 l51 26 19
-23 c17 -21 18 -24 3 -35 -28 -21 -7 -26 49 -10 104 29 139 29 266 1 19 -4 23
-1 21 18 -5 55 0 70 21 63 14 -4 20 -2 20 8 0 21 -31 28 -155 32 -73 3 -130 0
-170 -9z m95 -55 c0 -11 -25 -21 -51 -21 -12 0 -16 5 -13 15 7 16 64 21 64 6z"/>
<path d="M2785 4113 c-61 -8 -105 -24 -105 -37 0 -9 7 -12 20 -9 21 6 25 -6
21 -55 -2 -19 2 -22 21 -17 114 25 195 23 286 -8 42 -15 57 -6 27 17 -12 9
-12 14 4 33 l18 22 53 -25 c51 -24 68 -25 56 -6 -11 19 -116 63 -183 77 -64
14 -152 17 -218 8z m189 -68 c3 -10 -1 -15 -13 -15 -26 0 -51 10 -51 21 0 15
57 10 64 -6z"/>
<path d="M2370 3996 c0 -7 -11 -34 -25 -60 -14 -26 -25 -56 -25 -66 0 -21 28
-40 57 -40 17 1 17 1 1 11 -36 21 -39 45 -13 91 26 45 32 78 15 78 -5 0 -10
-6 -10 -14z"/>
<path d="M2568 3510 c-50 -68 -153 -89 -223 -45 -48 29 -85 35 -64 8 40 -48
156 -67 227 -37 39 16 87 56 103 87 17 30 -18 20 -43 -13z"/>
</g>
</svg>
